<svg xmlns="http://www.w3.org/2000/svg" xmlns:xlink="http://www.w3.org/1999/xlink" width="500" zoomAndPan="magnify" viewBox="0 0 375 374.999991" height="500" preserveAspectRatio="xMidYMid meet" version="1.0"><defs><clipPath id="3be15dcdfb"><path d="M 172.738281 179.890625 L 202.261719 179.890625 L 202.261719 209.410156 L 172.738281 209.410156 Z M 172.738281 179.890625 " clip-rule="nonzero"/></clipPath><clipPath id="f285dc4985"><path d="M 187.5 179.890625 C 179.347656 179.890625 172.738281 186.5 172.738281 194.648438 C 172.738281 202.800781 179.347656 209.410156 187.5 209.410156 C 195.652344 209.410156 202.261719 202.800781 202.261719 194.648438 C 202.261719 186.5 195.652344 179.890625 187.5 179.890625 Z M 187.5 179.890625 " clip-rule="nonzero"/></clipPath><clipPath id="657e5a3e47"><path d="M 183 96 L 191 96 L 191 194.660156 L 183 194.660156 Z M 183 96 " clip-rule="nonzero"/></clipPath><clipPath id="afe5ed0ab0"><path d="M 148.796875 25.910156 L 226.046875 25.910156 L 226.046875 104 L 148.796875 104 Z M 148.796875 25.910156 " clip-rule="nonzero"/></clipPath></defs><g clip-path="url(#3be15dcdfb)"><g clip-path="url(#f285dc4985)"><path fill="#000000" d="M 172.738281 179.890625 L 202.261719 179.890625 L 202.261719 209.410156 L 172.738281 209.410156 Z M 172.738281 179.890625 " fill-opacity="1" fill-rule="nonzero"/></g></g><g clip-path="url(#657e5a3e47)"><path fill="#455a64" d="M 187.421875 194.660156 C 186.953125 194.660156 186.507812 194.570312 186.078125 194.390625 C 185.648438 194.214844 185.269531 193.960938 184.9375 193.628906 C 184.609375 193.300781 184.355469 192.917969 184.179688 192.488281 C 184 192.058594 183.910156 191.609375 183.910156 191.144531 L 183.910156 99.738281 C 183.910156 99.269531 184 98.824219 184.179688 98.390625 C 184.355469 97.960938 184.609375 97.582031 184.9375 97.25 C 185.269531 96.921875 185.648438 96.667969 186.078125 96.488281 C 186.507812 96.3125 186.953125 96.222656 187.421875 96.222656 C 187.886719 96.222656 188.332031 96.3125 188.761719 96.488281 C 189.191406 96.667969 189.570312 96.921875 189.902344 97.25 C 190.230469 97.582031 190.484375 97.960938 190.660156 98.390625 C 190.839844 98.824219 190.929688 99.269531 190.929688 99.738281 L 190.929688 191.144531 C 190.929688 191.609375 190.839844 192.058594 190.660156 192.488281 C 190.484375 192.917969 190.230469 193.300781 189.902344 193.628906 C 189.570312 193.960938 189.191406 194.214844 188.761719 194.390625 C 188.332031 194.570312 187.886719 194.660156 187.421875 194.660156 Z M 187.421875 194.660156 " fill-opacity="1" fill-rule="nonzero"/></g><g clip-path="url(#afe5ed0ab0)"><path fill="#f44336" d="M 226.011719 64.582031 C 226.011719 65.847656 225.949219 67.109375 225.828125 68.371094 C 225.703125 69.632812 225.519531 70.882812 225.273438 72.125 C 225.023438 73.367188 224.71875 74.59375 224.351562 75.808594 C 223.984375 77.019531 223.558594 78.210938 223.074219 79.378906 C 222.589844 80.550781 222.050781 81.695312 221.457031 82.8125 C 220.859375 83.929688 220.210938 85.011719 219.507812 86.066406 C 218.808594 87.117188 218.054688 88.136719 217.253906 89.113281 C 216.449219 90.09375 215.601562 91.03125 214.710938 91.925781 C 213.816406 92.820312 212.878906 93.671875 211.902344 94.476562 C 210.925781 95.277344 209.910156 96.03125 208.859375 96.734375 C 207.808594 97.4375 206.726562 98.089844 205.613281 98.6875 C 204.496094 99.285156 203.355469 99.824219 202.1875 100.308594 C 201.019531 100.792969 199.832031 101.21875 198.621094 101.585938 C 197.414062 101.957031 196.1875 102.261719 194.949219 102.507812 C 193.710938 102.757812 192.460938 102.941406 191.203125 103.066406 C 189.945312 103.191406 188.683594 103.253906 187.421875 103.253906 C 186.15625 103.253906 184.894531 103.191406 183.636719 103.066406 C 182.378906 102.941406 181.128906 102.757812 179.890625 102.507812 C 178.652344 102.261719 177.425781 101.957031 176.21875 101.585938 C 175.007812 101.21875 173.820312 100.792969 172.652344 100.308594 C 171.484375 99.824219 170.34375 99.285156 169.226562 98.6875 C 168.113281 98.089844 167.03125 97.4375 165.980469 96.734375 C 164.929688 96.03125 163.914062 95.277344 162.9375 94.476562 C 161.960938 93.671875 161.023438 92.820312 160.128906 91.925781 C 159.238281 91.03125 158.390625 90.09375 157.585938 89.113281 C 156.785156 88.136719 156.035156 87.117188 155.332031 86.066406 C 154.628906 85.011719 153.980469 83.929688 153.382812 82.8125 C 152.789062 81.695312 152.25 80.550781 151.765625 79.378906 C 151.28125 78.210938 150.855469 77.019531 150.488281 75.808594 C 150.121094 74.59375 149.816406 73.367188 149.570312 72.125 C 149.320312 70.882812 149.136719 69.632812 149.011719 68.371094 C 148.890625 67.109375 148.828125 65.847656 148.828125 64.582031 C 148.828125 63.3125 148.890625 62.050781 149.011719 60.789062 C 149.136719 59.53125 149.320312 58.277344 149.570312 57.035156 C 149.816406 55.792969 150.121094 54.566406 150.488281 53.355469 C 150.855469 52.144531 151.28125 50.953125 151.765625 49.78125 C 152.25 48.613281 152.789062 47.46875 153.382812 46.351562 C 153.980469 45.234375 154.628906 44.148438 155.332031 43.097656 C 156.035156 42.042969 156.785156 41.027344 157.585938 40.046875 C 158.390625 39.070312 159.238281 38.132812 160.128906 37.234375 C 161.023438 36.339844 161.960938 35.492188 162.9375 34.6875 C 163.914062 33.882812 164.929688 33.128906 165.980469 32.425781 C 167.03125 31.722656 168.113281 31.074219 169.226562 30.476562 C 170.34375 29.878906 171.484375 29.335938 172.652344 28.851562 C 173.820312 28.367188 175.007812 27.941406 176.21875 27.574219 C 177.425781 27.207031 178.652344 26.898438 179.890625 26.652344 C 181.128906 26.40625 182.378906 26.21875 183.636719 26.09375 C 184.894531 25.972656 186.15625 25.910156 187.421875 25.910156 C 188.683594 25.910156 189.945312 25.972656 191.203125 26.09375 C 192.460938 26.21875 193.710938 26.40625 194.949219 26.652344 C 196.1875 26.898438 197.414062 27.207031 198.621094 27.574219 C 199.832031 27.941406 201.019531 28.367188 202.1875 28.851562 C 203.355469 29.335938 204.496094 29.878906 205.613281 30.476562 C 206.726562 31.074219 207.808594 31.722656 208.859375 32.425781 C 209.914062 33.128906 210.925781 33.882812 211.902344 34.6875 C 212.878906 35.492188 213.816406 36.339844 214.710938 37.234375 C 215.601562 38.132812 216.449219 39.070312 217.253906 40.046875 C 218.054688 41.027344 218.808594 42.042969 219.507812 43.097656 C 220.210938 44.148438 220.859375 45.234375 221.457031 46.351562 C 222.050781 47.46875 222.589844 48.613281 223.074219 49.78125 C 223.558594 50.953125 223.984375 52.144531 224.351562 53.355469 C 224.71875 54.566406 225.023438 55.792969 225.273438 57.035156 C 225.519531 58.277344 225.703125 59.53125 225.828125 60.789062 C 225.949219 62.050781 226.011719 63.3125 226.011719 64.582031 Z M 226.011719 64.582031 " fill-opacity="1" fill-rule="nonzero"/></g><path fill="#eceff1" d="M 166.371094 68.097656 C 165.902344 68.097656 165.457031 68.007812 165.027344 67.828125 C 164.597656 67.652344 164.21875 67.398438 163.886719 67.066406 C 163.558594 66.738281 163.304688 66.355469 163.128906 65.925781 C 162.949219 65.496094 162.859375 65.046875 162.859375 64.582031 C 162.859375 63.773438 162.898438 62.972656 162.980469 62.167969 C 163.058594 61.367188 163.175781 60.570312 163.332031 59.78125 C 163.488281 58.988281 163.683594 58.207031 163.917969 57.4375 C 164.152344 56.664062 164.421875 55.90625 164.730469 55.164062 C 165.039062 54.417969 165.382812 53.691406 165.761719 52.980469 C 166.140625 52.269531 166.554688 51.578125 167 50.910156 C 167.445312 50.238281 167.925781 49.59375 168.433594 48.96875 C 168.945312 48.347656 169.484375 47.75 170.054688 47.179688 C 170.621094 46.609375 171.21875 46.070312 171.839844 45.558594 C 172.460938 45.046875 173.105469 44.566406 173.777344 44.117188 C 174.445312 43.671875 175.132812 43.257812 175.84375 42.878906 C 176.550781 42.496094 177.277344 42.152344 178.023438 41.84375 C 178.765625 41.535156 179.519531 41.265625 180.289062 41.03125 C 181.058594 40.796875 181.839844 40.601562 182.628906 40.445312 C 183.417969 40.289062 184.210938 40.167969 185.011719 40.089844 C 185.8125 40.011719 186.617188 39.972656 187.421875 39.972656 C 187.886719 39.972656 188.332031 40.0625 188.761719 40.238281 C 189.191406 40.417969 189.570312 40.671875 189.902344 41 C 190.230469 41.332031 190.484375 41.710938 190.660156 42.140625 C 190.839844 42.574219 190.929688 43.019531 190.929688 43.488281 C 190.929688 43.953125 190.839844 44.402344 190.660156 44.832031 C 190.484375 45.261719 190.230469 45.644531 189.902344 45.972656 C 189.570312 46.304688 189.191406 46.558594 188.761719 46.734375 C 188.332031 46.914062 187.886719 47.003906 187.421875 47.003906 C 186.84375 47.003906 186.273438 47.03125 185.699219 47.085938 C 185.128906 47.144531 184.5625 47.226562 183.996094 47.339844 C 183.433594 47.453125 182.878906 47.59375 182.328125 47.757812 C 181.777344 47.925781 181.238281 48.121094 180.707031 48.339844 C 180.175781 48.5625 179.65625 48.808594 179.152344 49.078125 C 178.644531 49.351562 178.152344 49.644531 177.675781 49.964844 C 177.195312 50.285156 176.734375 50.628906 176.292969 50.992188 C 175.847656 51.359375 175.421875 51.746094 175.015625 52.152344 C 174.609375 52.558594 174.222656 52.984375 173.859375 53.429688 C 173.496094 53.875 173.152344 54.335938 172.835938 54.816406 C 172.515625 55.292969 172.21875 55.785156 171.949219 56.292969 C 171.679688 56.800781 171.433594 57.320312 171.214844 57.855469 C 170.992188 58.386719 170.800781 58.925781 170.632812 59.476562 C 170.464844 60.027344 170.328125 60.585938 170.214844 61.152344 C 170.101562 61.714844 170.019531 62.285156 169.960938 62.859375 C 169.90625 63.429688 169.878906 64.003906 169.878906 64.582031 C 169.878906 65.046875 169.789062 65.496094 169.609375 65.925781 C 169.433594 66.355469 169.179688 66.738281 168.851562 67.066406 C 168.519531 67.398438 168.140625 67.652344 167.710938 67.828125 C 167.28125 68.007812 166.835938 68.097656 166.371094 68.097656 Z M 166.371094 68.097656 " fill-opacity="1" fill-rule="nonzero"/><path stroke-linecap="butt" transform="matrix(0.53033, 0.53033, -0.53033, 0.53033, 13.521989, -13.51996)" fill="none" stroke-linejoin="miter" d="M 0.00177021 25.499079 L 707.108595 25.499079 " stroke="#000000" stroke-width="51" stroke-opacity="1" stroke-miterlimit="4"/><path stroke-linecap="butt" transform="matrix(0.53033, -0.53033, 0.53033, 0.53033, -14.055173, 360.942749)" fill="none" stroke-linejoin="miter" d="M 0.00172391 26.500966 L 707.108549 26.500966 " stroke="#000000" stroke-width="53" stroke-opacity="1" stroke-miterlimit="4"/></svg>